# xmcd
#
# Track frame offsets:
#	150
#	19461
#	56797
#	96685
#	119975
#	146233
#	170440
#	205476
#	234789
#
# Disc length: 3576 seconds
#
# Revision: 0
# Processed by: cddbd v1.5.2PL0 Copyright (c) Steve Scherf et al.
# Submitted via: audiograbber 1.83.01
#
DISCID=910df609
DTITLE=Grateful Dead - 92-05-25 Shoreline Amphitheatre, Mountain View CA
DYEAR=1900
DGENRE=
TTITLE0=Let The Good Times Roll
TTITLE1=Feel Like A Stranger
TTITLE2=West LA Fadeaway
TTITLE3=Mexicali Blues
TTITLE4=Big River
TTITLE5=Just Like Tom Thumb's Blues
TTITLE6=Tennessee Jed
TTITLE7=Picasso Moon
TTITLE8=Baba O'Riley > Tomorrow Never Knows
EXTD=
EXTT0=
EXTT1=
EXTT2=
EXTT3=
EXTT4=
EXTT5=
EXTT6=
EXTT7=
EXTT8=
PLAYORDER=
